<svg width="625" height="666" viewBox="0 0 625 666" fill="none" xmlns="http://www.w3.org/2000/svg">
<path d="M536.742 383.406C556.915 344.906 574.475 327.848 624 321.406C568.509 312.57 554.569 300.905 534.397 254.905C519.706 221.405 463.583 206.139 436.819 244.905C418.523 271.405 420.22 282.905 398.819 285.906C333.695 295.036 301.133 285.906 242.6 285.906C220.082 285.906 223.366 278.905 208.354 251.906C174.577 204.905 121.096 223.905 100.924 251.906C83.5663 279.405 79.7144 290.478 55.4187 307.906C35.6053 315.823 23.9 318.843 1 319.406C22.095 321.275 34.0163 323.892 55.4187 330.906C85.4428 347.905 84.4678 372.905 100.924 390.906C132.464 425.405 190.527 421.406 208.354 390.906C214.453 372.406 220.551 355.906 236.502 352.906C248.051 350.734 336.464 347.941 398.819 352.906C426.029 355.072 425.005 371.406 431.658 383.406C449.954 416.406 502.105 429.956 536.742 383.406Z" fill="#66030D" stroke="#66030D"/>
<path d="M481.855 272.405C517.977 287.405 511.41 354.406 481.855 366.906C465.291 370.652 454.176 361.905 442.448 349.905C430.251 342.405 397.412 340.906 397.412 340.906H205.539C191.935 344.405 179.409 354.788 168.478 363.906C157.688 372.905 143.834 372.821 135.639 367.906C100.924 341.406 106.554 293.405 138.923 275.905C149.916 271.409 160.972 271.423 167.071 275.905C180.676 285.905 187.712 297.905 208.354 300.405H398.819C417.919 300.664 425.654 300.262 442.448 292.905C442.448 292.905 456.053 272.405 481.855 272.405Z" fill="white" stroke="#66030D"/>
<path d="M474.349 284.906C473.594 284.906 472.836 284.856 472.105 284.808C471.906 284.795 471.71 284.783 471.516 284.771C470.596 284.715 469.721 284.685 468.884 284.77C467.245 284.938 465.743 285.549 464.432 287.384C463.094 289.256 461.936 292.428 461.12 297.77C460.305 303.102 459.837 310.542 459.837 320.906C459.837 330.646 460.188 337.78 460.83 343.001C461.472 348.231 462.401 351.498 463.527 353.539C464.636 355.546 465.93 356.359 467.37 356.7C468.521 356.973 469.757 356.949 471.141 356.922C471.572 356.914 472.017 356.906 472.478 356.906C473.305 356.906 474.293 356.61 475.409 356.018C476.52 355.429 477.727 354.563 478.983 353.462C481.494 351.261 484.164 348.157 486.608 344.569C491.506 337.379 495.428 328.354 495.428 320.906C495.428 313.44 491.961 304.408 487.531 297.223C485.319 293.636 482.883 290.534 480.548 288.337C479.38 287.238 478.248 286.375 477.191 285.788C476.13 285.2 475.173 284.906 474.349 284.906Z" fill="#66030D" stroke="#66030D"/>
<path d="M147.367 284.873C148.122 284.873 148.88 284.824 149.612 284.776C149.81 284.763 150.006 284.75 150.2 284.738C151.12 284.683 151.995 284.652 152.832 284.738C154.471 284.905 155.973 285.517 157.284 287.351C158.622 289.224 159.78 292.396 160.596 297.738C161.411 303.069 161.879 310.51 161.879 320.873C161.879 330.614 161.528 337.747 160.886 342.968C160.244 348.199 159.315 351.466 158.189 353.506C157.08 355.514 155.786 356.327 154.346 356.668C153.195 356.94 151.959 356.917 150.575 356.89C150.144 356.882 149.699 356.873 149.238 356.873C148.411 356.873 147.423 356.578 146.307 355.986C145.196 355.397 143.989 354.53 142.734 353.43C140.222 351.229 137.552 348.125 135.108 344.537C130.21 337.347 126.288 328.322 126.288 320.873C126.288 313.408 129.755 304.376 134.185 297.19C136.397 293.603 138.833 290.502 141.168 288.305C142.336 287.206 143.468 286.342 144.526 285.756C145.586 285.167 146.543 284.873 147.367 284.873Z" fill="#66030D" stroke="#66030D"/>
<path d="M251 94C289.5 72.5 306.557 53.7841 312.999 1C321.835 60.1432 333.5 75 379.5 96.5C413 112.158 428.266 171.974 389.5 200.5C363 220 351.5 218.191 348.5 241C339.369 310.41 348.5 345.116 348.5 407.5C348.5 431.5 355.5 428 382.5 444C429.5 480 410.5 537 382.5 558.5C355 577 343.927 581.105 326.499 607C318.582 628.117 315.563 640.593 314.999 665C313.13 642.517 310.513 629.811 303.499 607C286.5 575 261.5 576.039 243.499 558.5C209 524.885 213 463 243.5 444C262 437.5 278.5 431 281.499 414C283.672 401.69 286.464 307.459 281.499 241C279.333 212 263 213.091 251 206C218 186.5 204.449 130.916 251 94Z" fill="#66030D" stroke="#66030D"/>
<path d="M362 152.5C347 114 280 121 267.5 152.5C263.753 170.154 272.5 182 284.5 194.5C292 207.5 293.5 242.5 293.5 242.5V447C290 461.5 279.617 474.85 270.5 486.5C261.5 498 261.584 512.766 266.5 521.5C293 558.5 341 552.5 358.5 518C362.996 506.284 362.983 494.5 358.5 488C348.5 473.5 336.5 466 334 444V241C333.742 220.644 334.144 212.399 341.5 194.5C341.5 194.5 362 180 362 152.5Z" fill="white" stroke="#66030D"/>
<path d="M349.5 160.5C349.5 161.302 349.549 162.107 349.597 162.886C349.61 163.098 349.623 163.308 349.635 163.515C349.69 164.497 349.721 165.433 349.635 166.331C349.466 168.096 348.846 169.706 347.009 171.105C345.138 172.531 341.969 173.763 336.63 174.633C331.301 175.501 323.863 176 313.5 176C303.76 176 296.628 175.625 291.409 174.942C286.181 174.257 282.917 173.268 280.879 172.069C278.874 170.889 278.052 169.506 277.707 167.952C277.433 166.717 277.456 165.389 277.483 163.911C277.491 163.454 277.5 162.982 277.5 162.494C277.5 160.677 278.73 158.231 280.953 155.527C283.156 152.849 286.261 150.003 289.848 147.398C297.04 142.176 306.061 138 313.5 138C320.957 138 329.985 141.692 337.171 146.415C340.757 148.772 343.859 151.369 346.058 153.859C348.277 156.372 349.5 158.691 349.5 160.5Z" fill="#66030D" stroke="#66030D"/>
<path d="M349.532 509C349.532 508.198 349.582 507.393 349.629 506.614C349.642 506.402 349.655 506.192 349.667 505.985C349.722 505.003 349.753 504.067 349.667 503.169C349.498 501.404 348.879 499.794 347.042 498.395C345.171 496.969 342.002 495.737 336.663 494.867C331.334 493.999 323.895 493.5 313.532 493.5C303.792 493.5 296.66 493.875 291.441 494.558C286.213 495.243 282.949 496.232 280.911 497.431C278.906 498.611 278.084 499.994 277.739 501.548C277.465 502.783 277.489 504.111 277.516 505.589C277.524 506.046 277.532 506.518 277.532 507.006C277.532 508.823 278.763 511.269 280.986 513.973C283.188 516.651 286.293 519.497 289.881 522.102C297.072 527.324 306.093 531.5 313.532 531.5C320.989 531.5 330.017 527.808 337.203 523.085C340.79 520.728 343.891 518.131 346.09 515.641C348.309 513.128 349.532 510.809 349.532 509Z" fill="#66030D" stroke="#66030D"/>
</svg>
