<svg width="259" height="667" viewBox="0 0 259 667" fill="none" xmlns="http://www.w3.org/2000/svg">
<path d="M257 258.5H2C18.8379 333.289 36.5108 371.891 104.5 426V451C89.7967 475.027 89.6183 488.173 104.5 511V571C100.771 589.605 95.5 595.5 84 604.5L1.5 666.5H257L179 604.5C164.5 594 158.628 587.121 154.5 571V511C167.221 487.568 168.579 474.432 154.5 451V426C216.514 377.573 235.904 338.539 257 258.5Z" fill="#66030D" stroke="#66030D"/>
<path d="M239.678 110C239.678 170.471 190.17 219.5 129.089 219.5C68.0078 219.5 18.5 170.471 18.5 110C18.5 49.5295 68.0078 0.5 129.089 0.5C190.17 0.5 239.678 49.5295 239.678 110Z" fill="#FFF7ED" stroke="#FFF7ED"/>
</svg>
