<svg width="223" height="220" viewBox="0 0 223 220" fill="none" xmlns="http://www.w3.org/2000/svg">
<path d="M221.678 110C221.678 170.471 172.17 219.5 111.089 219.5C50.0078 219.5 0.5 170.471 0.5 110C0.5 49.5295 50.0078 0.5 111.089 0.5C172.17 0.5 221.678 49.5295 221.678 110Z" fill="#FFF7ED" stroke="#FFF7ED"/>
<path d="M35.04 144.96C34.88 144.96 34.8 144.88 34.8 144.72C34.8 144.507 34.9333 144.267 35.2 144C35.52 143.68 35.7867 143.547 36 143.6C37.28 143.6 38.4267 143.627 39.44 143.68C40.4533 143.68 41.3333 143.68 42.08 143.68C44 143.68 45.4133 143.493 46.32 143.12C47.2267 142.693 47.9467 141.84 48.48 140.56C49.0133 139.28 49.6533 137.307 50.4 134.64C52.0533 128.827 53.4133 123.253 54.48 117.92C55.5467 112.533 56.56 106.933 57.52 101.12C57.5733 100.96 57.6 100.72 57.6 100.4C57.6 99.4933 57.3333 98.7467 56.8 98.16C56.2667 97.52 55.7067 97.1467 55.12 97.04C54.5867 96.9333 53.68 96.8533 52.4 96.8C51.1733 96.7467 49.9467 96.72 48.72 96.72C47.4933 96.6667 46.6933 96.6667 46.32 96.72C46.0533 96.72 45.92 96.6133 45.92 96.4C45.92 96.1867 46.0533 95.9733 46.32 95.76C46.5867 95.4933 46.8533 95.36 47.12 95.36C49.2 95.36 51.6267 95.4133 54.4 95.52C57.1733 95.6267 59.7867 95.68 62.24 95.68C62.88 95.68 63.4667 95.68 64 95.68C64.5867 95.68 65.1467 95.6533 65.68 95.6C66.5867 95.5467 68 95.4933 69.92 95.44C71.8933 95.3867 73.9467 95.36 76.08 95.36C76.7733 95.36 77.44 95.3867 78.08 95.44C78.7733 95.44 79.4133 95.44 80 95.44H80.08C80.24 95.44 80.32 95.52 80.32 95.68C80.32 95.8933 80.1867 96.16 79.92 96.48C79.6533 96.7467 79.4133 96.8533 79.2 96.8C77.8667 96.8 76.6667 96.7733 75.6 96.72C74.5867 96.6667 73.6533 96.64 72.8 96.64C70.9333 96.64 69.52 96.8533 68.56 97.28C67.6 97.6533 66.8533 98.5067 66.32 99.84C65.7867 101.12 65.1467 103.093 64.4 105.76C63.9733 107.413 63.4667 109.467 62.88 111.92C62.3467 114.373 61.7867 116.987 61.2 119.76C60.6133 122.48 60.0533 125.173 59.52 127.84C59.04 130.507 58.6133 132.933 58.24 135.12C57.8667 137.253 57.6267 138.933 57.52 140.16C57.4133 141.173 57.6267 141.947 58.16 142.48C58.6933 142.96 59.2 143.253 59.68 143.36C60.2133 143.413 61.0933 143.467 62.32 143.52C63.6 143.573 64.8533 143.627 66.08 143.68C67.3067 143.68 68.1067 143.68 68.48 143.68H68.56C68.8267 143.68 68.96 143.76 68.96 143.92C68.96 144.133 68.8267 144.373 68.56 144.64C68.2933 144.853 68 144.96 67.68 144.96C65.5467 144.96 63.0933 144.907 60.32 144.8C57.6 144.693 55.0133 144.64 52.56 144.64C51.92 144.64 51.3067 144.64 50.72 144.64C50.1867 144.64 49.6533 144.667 49.12 144.72C48.32 144.72 47.12 144.747 45.52 144.8C43.9733 144.853 42.2667 144.907 40.4 144.96C38.5867 144.96 36.8267 144.96 35.12 144.96H35.04ZM69.9563 144.96L70.7563 143.6H71.9563C73.1829 143.6 74.2496 143.627 75.1563 143.68C76.1163 143.733 76.9696 143.76 77.7163 143.76C79.5829 143.76 80.9429 143.573 81.7963 143.2C82.7029 142.773 83.4229 141.92 83.9563 140.64C84.4896 139.307 85.1296 137.307 85.8763 134.64C87.5829 128.827 88.9696 123.253 90.0363 117.92C91.1029 112.533 92.1163 106.933 93.0763 101.12C93.2363 100.053 93.0229 99.1467 92.4363 98.4C91.9029 97.6 91.2896 97.1467 90.5963 97.04C90.1696 96.9333 89.4496 96.8533 88.4363 96.8C87.4763 96.7467 86.4629 96.72 85.3963 96.72C84.3829 96.6667 83.5029 96.6667 82.7563 96.72L80.9162 96.8L81.7163 95.44L82.8363 95.36C83.2629 95.3067 83.6896 95.28 84.1163 95.28C84.5963 95.28 85.0763 95.28 85.5563 95.28C87.4763 95.28 89.5029 95.36 91.6363 95.52C93.8229 95.6267 95.8763 95.68 97.7963 95.68C98.3829 95.68 98.9429 95.68 99.4763 95.68C100.063 95.6267 100.623 95.6 101.156 95.6L112.676 95.28L112.596 96.56C112.596 96.56 112.196 96.56 111.396 96.56C110.65 96.56 109.796 96.56 108.836 96.56C107.93 96.56 107.236 96.5867 106.756 96.64C105.103 96.8 103.85 97.3067 102.996 98.16C102.196 98.96 101.37 100.693 100.516 103.36C100.25 104.267 99.8496 105.813 99.3163 108C98.7829 110.133 98.2496 112.507 97.7163 115.12C97.7163 115.173 97.6896 115.227 97.6363 115.28C97.6363 115.333 97.6363 115.413 97.6363 115.52C97.6363 115.787 97.7429 116.053 97.9563 116.32C98.2229 116.533 98.7296 116.64 99.4763 116.64H120.676C121.423 116.64 121.983 116.507 122.356 116.24C122.783 115.973 123.076 115.44 123.236 114.64C123.663 112.24 124.09 109.813 124.516 107.36C124.996 104.907 125.45 102.4 125.876 99.84C126.09 98.8267 125.903 98.08 125.316 97.6C124.783 97.0667 124.276 96.7733 123.796 96.72C123.476 96.6133 123.023 96.56 122.436 96.56C121.85 96.56 121.263 96.56 120.676 96.56C119.716 96.56 118.836 96.5867 118.036 96.64C117.236 96.64 116.836 96.64 116.836 96.64L117.636 95.36C117.636 95.36 118.303 95.3867 119.636 95.44C120.97 95.4933 122.596 95.5733 124.516 95.68C126.436 95.7333 128.25 95.76 129.956 95.76C130.33 95.76 130.836 95.76 131.476 95.76C132.17 95.7067 132.97 95.6533 133.876 95.6C134.783 95.5467 136.17 95.52 138.036 95.52C139.903 95.4667 141.85 95.44 143.876 95.44H148.916L148.036 96.8H141.556C139.956 96.8 138.676 96.88 137.716 97.04C136.81 97.2 136.09 97.5733 135.556 98.16C135.023 98.7467 134.543 99.6533 134.116 100.88C133.743 102.053 133.263 103.68 132.676 105.76C132.196 107.413 131.663 109.467 131.076 111.92C130.543 114.373 129.983 116.987 129.396 119.76C128.863 122.48 128.33 125.173 127.796 127.84C127.316 130.507 126.89 132.933 126.516 135.12C126.196 137.253 125.956 138.933 125.796 140.16C125.69 141.173 125.903 141.947 126.436 142.48C126.97 142.96 127.45 143.253 127.876 143.36C128.463 143.413 129.37 143.467 130.596 143.52C131.876 143.573 133.13 143.627 134.356 143.68C135.583 143.68 136.383 143.68 136.756 143.68H136.836C137.05 143.68 137.156 143.76 137.156 143.92C137.156 144.133 137.023 144.373 136.756 144.64C136.49 144.853 136.223 144.96 135.956 144.96C133.823 144.96 131.37 144.907 128.596 144.8C125.823 144.693 123.21 144.64 120.756 144.64C120.116 144.64 119.503 144.667 118.916 144.72C118.383 144.72 117.85 144.72 117.316 144.72L109.316 144.96H108.036L108.516 143.68H109.396C109.93 143.68 110.41 143.707 110.836 143.76C111.316 143.813 111.743 143.84 112.116 143.84C113.236 143.84 114.17 143.627 114.916 143.2C115.663 142.773 116.356 141.92 116.996 140.64C117.636 139.307 118.33 137.307 119.076 134.64C119.716 132.347 120.223 130.133 120.596 128C120.97 125.867 121.37 123.733 121.796 121.6C121.85 121.387 121.876 121.12 121.876 120.8C121.876 120.32 121.69 120.053 121.316 120C120.996 119.893 120.516 119.84 119.876 119.84H98.0363C97.5029 119.84 97.0763 120.053 96.7563 120.48C96.4896 120.907 96.3029 121.44 96.1963 122.08C95.8763 123.893 95.4763 126 94.9963 128.4C94.5163 130.8 94.0896 133.093 93.7163 135.28C93.3429 137.413 93.0763 139.04 92.9163 140.16C92.8629 141.173 93.1029 141.947 93.6363 142.48C94.1696 142.96 94.6763 143.253 95.1563 143.36C95.7963 143.467 96.6229 143.573 97.6363 143.68C98.6496 143.787 99.5563 143.813 100.356 143.76L102.436 143.68L101.636 144.96H100.196C98.5429 144.96 96.8096 144.907 94.9963 144.8C93.2363 144.693 91.4763 144.64 89.7162 144.64C88.8629 144.64 87.9829 144.64 87.0763 144.64C86.2229 144.64 85.3696 144.667 84.5163 144.72C83.8229 144.72 82.7829 144.747 81.3963 144.8C80.0096 144.853 78.4629 144.907 76.7563 144.96C75.1029 144.96 73.4496 144.96 71.7962 144.96H69.9563ZM154.23 145.92C152.897 145.92 151.617 145.76 150.39 145.44C149.217 145.067 148.283 144.427 147.59 143.52C147.217 142.987 146.657 142.24 145.91 141.28C145.217 140.267 144.87 139.307 144.87 138.4C144.87 137.76 145.03 137.253 145.35 136.88C146.097 135.92 146.683 135.04 147.11 134.24C147.59 133.44 148.07 132.48 148.55 131.36C149.03 130.187 149.617 128.64 150.31 126.72C150.577 126.133 150.79 125.493 150.95 124.8C151.11 124.107 151.43 123.893 151.91 124.16C152.123 124.267 152.123 124.8 151.91 125.76C151.697 126.667 151.537 127.493 151.43 128.24C151.377 128.507 151.35 128.773 151.35 129.04C151.35 129.307 151.35 129.573 151.35 129.84C151.35 132.507 151.883 134.72 152.95 136.48C154.07 138.24 155.483 139.547 157.19 140.4C158.95 141.2 160.817 141.6 162.79 141.6C164.977 141.6 167.11 141.12 169.19 140.16C171.323 139.147 173.11 137.68 174.55 135.76C175.99 133.84 176.817 131.52 177.03 128.8C177.137 127.04 176.79 125.653 175.99 124.64C175.19 123.627 174.097 122.88 172.71 122.4C171.323 121.92 169.777 121.6 168.07 121.44C166.417 121.28 164.763 121.147 163.11 121.04C159.163 120.773 156.177 119.68 154.15 117.76C152.123 115.787 151.19 113.653 151.35 111.36C151.51 108.8 152.497 106.453 154.31 104.32C156.123 102.187 158.39 100.32 161.11 98.72C163.83 97.12 166.71 95.8933 169.75 95.04C172.79 94.1867 175.643 93.76 178.31 93.76C180.39 93.76 182.23 94.0533 183.83 94.64C185.43 95.2267 186.603 96.1333 187.35 97.36C188.097 98.64 188.47 99.7067 188.47 100.56C188.47 101.093 188.337 101.627 188.07 102.16C187.803 102.64 187.403 103.2 186.87 103.84C186.23 104.693 185.67 105.413 185.19 106C184.763 106.587 184.31 107.307 183.83 108.16C183.403 108.96 182.843 110.08 182.15 111.52C181.883 112.107 181.59 112.4 181.27 112.4C181.057 112.4 180.95 112.213 180.95 111.84C180.95 111.52 181.057 111.173 181.27 110.8C181.75 109.253 181.99 107.893 181.99 106.72C181.99 104.747 181.483 103.093 180.47 101.76C179.51 100.373 178.257 99.3333 176.71 98.64C175.163 97.8933 173.51 97.52 171.75 97.52C169.937 97.52 168.177 97.92 166.47 98.72C164.817 99.4667 163.403 100.667 162.23 102.32C161.11 103.92 160.443 105.973 160.23 108.48C160.123 109.973 160.443 111.173 161.19 112.08C161.937 112.987 162.923 113.68 164.15 114.16C165.43 114.64 166.737 114.987 168.07 115.2C169.457 115.413 170.737 115.547 171.91 115.6C173.083 115.6 173.937 115.627 174.47 115.68C178.79 115.84 181.723 116.64 183.27 118.08C184.87 119.467 185.617 121.147 185.51 123.12C185.297 125.893 184.31 128.64 182.55 131.36C180.843 134.027 178.55 136.48 175.67 138.72C172.79 140.907 169.51 142.667 165.83 144C162.15 145.28 158.283 145.92 154.23 145.92Z" fill="#5C380D"/>
</svg>
